<svg xmlns="http://www.w3.org/2000/svg" width="512" height="512" viewBox="0 0 512 512">
  <defs>
    <radialGradient id="g" cx="50%" cy="40%" r="65%">
      <stop offset="0%" stop-color="#f4f4f5"/>
      <stop offset="55%" stop-color="#ffffff"/>
      <stop offset="100%" stop-color="#050505"/>
    </radialGradient>
    <filter id="glow"><feGaussianBlur stdDeviation="10" result="b"/><feMerge><feMergeNode in="b"/><feMergeNode in="SourceGraphic"/></feMerge></filter>
  </defs>
  <rect width="512" height="512" rx="120" fill="#030303"/>
  <circle cx="256" cy="256" r="200" fill="url(#g)" opacity=".22"/>
  <path filter="url(#glow)" d="M154 372 256 118l102 254h-64l-18-52h-44l21-57h4l-1-4-2 4h-40l-37 109h-23Z" fill="#ffffff"/>
  <path d="M198 392h116c24 0 44-19 44-43v-7h-64v5c0 6-5 11-11 11h-64c-6 0-11-5-11-11v-5h-54v7c0 24 20 43 44 43Z" fill="#fff" opacity=".92"/>
</svg>