<svg xmlns="http://www.w3.org/2000/svg" width="1280" height="720" viewBox="0 0 1280 720">
  <defs>
    <radialGradient id="g" cx="70%" cy="25%" r="70%"><stop offset="0" stop-color="#ffffff" stop-opacity=".5"/><stop offset="1" stop-color="#030303"/></radialGradient>
    <linearGradient id="l" x1="0" x2="1"><stop offset="0" stop-color="#111"/><stop offset="1" stop-color="#1b0b03"/></linearGradient>
  </defs>
  <rect width="1280" height="720" fill="url(#l)"/>
  <circle cx="960" cy="160" r="360" fill="url(#g)"/>
  <path d="M0 560 C240 500 440 670 680 590 C900 515 1040 570 1280 500 L1280 720 L0 720 Z" fill="#ffffff" opacity=".16"/>
  <g opacity=".18" stroke="#ffffff"><path d="M80 120h1120M80 240h1120M80 360h1120M80 480h1120"/><path d="M180 60v600M360 60v600M540 60v600M720 60v600M900 60v600M1080 60v600"/></g>
  <rect x="72" y="78" width="1136" height="564" rx="56" fill="#ffffff" opacity=".045" stroke="#ffffff" stroke-opacity=".25"/>
  <text x="100" y="330" font-size="76" font-family="Inter,Arial,sans-serif" font-weight="900" fill="#fff">Modern Housing</text>
  <text x="104" y="390" font-size="28" font-family="Inter,Arial,sans-serif" font-weight="700" fill="#ffffff">Property system</text>
</svg>